<?xml version="1.0" encoding="UTF-8" standalone="no"?>
<!DOCTYPE svg PUBLIC "-//W3C//DTD SVG 1.1//EN"
 "http://www.w3.org/Graphics/SVG/1.1/DTD/svg11.dtd">
<!-- Generated by graphviz version 2.40.1 (20161225.0304)
 -->
<!-- Title: boxes_and_circles Pages: 1 -->
<svg width="481pt" height="101pt"
 viewBox="0.00 0.00 480.92 100.80" xmlns="http://www.w3.org/2000/svg" xmlns:xlink="http://www.w3.org/1999/xlink">
<g id="graph0" class="graph" transform="scale(1 1) rotate(0) translate(4 96.8)">
<title>boxes_and_circles</title>
<!-- input -->
<g id="node1" class="node">
<title>input</title>
<defs>
<radialGradient id="r_0" cx="50%" cy="50%" r="75%" fx="50%" fy="50%">
<stop offset="0" style="stop-color:#82b1ff;stop-opacity:1.;"/>
<stop offset="1" style="stop-color:#8c9eff;stop-opacity:1.;"/>
</radialGradient>
</defs>
<polygon fill="url(#r_0)" stroke="#000000" points="148.7063,-92.7002 -.2359,-92.7002 -.2359,-.0998 148.7063,-.0998 148.7063,-92.7002"/>
<text text-anchor="middle" x="74.2352" y="-62.6" font-family="Open Sans" font-size="18.00" fill="#000000">Somatic variants</text>
<text text-anchor="middle" x="74.2352" y="-41" font-family="Open Sans" font-size="18.00" fill="#000000">(VCF file)</text>
<text text-anchor="middle" x="74.2352" y="-19.4" font-family="Open Sans" font-size="18.00" fill="#000000">or peptides</text>
</g>
<!-- ag -->
<g id="node3" class="node">
<title>ag</title>
<defs>
<radialGradient id="r_1" cx="50%" cy="50%" r="75%" fx="50%" fy="50%">
<stop offset="0" style="stop-color:#ffd180;stop-opacity:1.;"/>
<stop offset="1" style="stop-color:#ffab40;stop-opacity:1.;"/>
</radialGradient>
</defs>
<polygon fill="url(#r_1)" stroke="#000000" points="323.1756,-71.0016 184.2348,-71.0016 184.2348,-21.7984 323.1756,-21.7984 323.1756,-71.0016"/>
<text text-anchor="middle" x="253.7052" y="-41" font-family="Open Sans" font-size="18.00" fill="#000000">antigen.garnish</text>
</g>
<!-- input&#45;&gt;ag -->
<g id="edge1" class="edge">
<title>input&#45;&gt;ag</title>
<path fill="none" stroke="#000000" d="M148.528,-46.4C157.0532,-46.4 165.7702,-46.4 174.3585,-46.4"/>
<polygon fill="#000000" stroke="#000000" points="174.3621,-49.9001 184.362,-46.4 174.362,-42.9001 174.3621,-49.9001"/>
</g>
<!-- epi -->
<g id="node2" class="node">
<title>epi</title>
<defs>
<radialGradient id="r_2" cx="50%" cy="50%" r="75%" fx="50%" fy="50%">
<stop offset="0" style="stop-color:#82b1ff;stop-opacity:1.;"/>
<stop offset="1" style="stop-color:#8c9eff;stop-opacity:1.;"/>
</radialGradient>
</defs>
<polygon fill="url(#r_2)" stroke="#000000" points="472.9028,-82.1003 358.9524,-82.1003 358.9524,-10.6997 472.9028,-10.6997 472.9028,-82.1003"/>
<text text-anchor="middle" x="415.9276" y="-51.8" font-family="Open Sans" font-size="18.00" fill="#000000">Predicted</text>
<text text-anchor="middle" x="415.9276" y="-30.2" font-family="Open Sans" font-size="18.00" fill="#000000">neoepitopes</text>
</g>
<!-- ag&#45;&gt;epi -->
<g id="edge2" class="edge">
<title>ag&#45;&gt;epi</title>
<path fill="none" stroke="#000000" d="M322.9726,-46.4C331.4827,-46.4 340.1705,-46.4 348.6504,-46.4"/>
<polygon fill="#000000" stroke="#000000" points="348.8651,-49.9001 358.8651,-46.4 348.865,-42.9001 348.8651,-49.9001"/>
</g>
</g>
</svg>

